<?xml version="1.0" encoding="UTF-8"?> <svg xmlns="http://www.w3.org/2000/svg" viewBox="0 0 150.00 59.00" data-guides="{&quot;vertical&quot;:[],&quot;horizontal&quot;:[]}"><path fill="#000" stroke="none" fill-opacity="1" stroke-width="1" stroke-opacity="1" color="rgb(51, 51, 51)" id="tSvg927d1b590f" title="Path 1" d="M2.2089 52.4206C2.6346 52.9073 3.2044 53.1484 3.773 53.1484C4.6991 53.1484 5.1955 52.3 5.1955 51.2082C5.1955 50.1165 4.8405 49.5114 3.9157 48.9063C2.7774 48.1763 2.1369 47.2073 2.1369 45.631C2.1369 43.8114 2.9909 42.4763 4.3428 42.4763C5.0541 42.4763 5.5518 42.7174 5.8361 43.0835C5.7649 43.4877 5.6938 43.8918 5.6226 44.2959C5.2404 43.8829 4.7952 43.6717 4.3428 43.6886C3.4167 43.6886 3.0617 44.6598 3.0617 45.3877C3.0617 46.4794 3.4887 46.9639 4.4122 47.6896C5.5518 48.4196 6.1216 49.3886 6.1216 51.0877C6.1216 52.9073 5.3383 54.4835 3.7022 54.4835C3.0858 54.4579 2.4795 54.2098 1.9234 53.7557C2.0181 53.3107 2.1129 52.8656 2.2089 52.4206ZM11.8145 49.9959C11.8145 53.1484 10.5334 54.4835 9.3964 54.4835C8.0433 54.4835 7.0477 52.7845 7.0477 50.1165C7.0477 47.3278 8.1153 45.6288 9.4659 45.6288C10.8897 45.7516 11.8145 47.4484 11.8145 49.9959ZM7.9005 50.1165C7.9005 51.9361 8.5411 53.3918 9.3951 53.3918C10.2492 53.3918 10.8897 52.0567 10.8897 50.1165C10.8897 48.6608 10.4627 46.9639 9.3951 46.9639C8.3996 46.8433 7.9005 48.5424 7.9005 50.1165ZM13.0223 54.2402C13.0223 51.8148 13.0223 49.3893 13.0223 46.9639C12.7852 46.9639 12.5481 46.9639 12.311 46.9639C12.311 46.5598 12.311 46.1557 12.311 45.7516C12.5481 45.7516 12.7852 45.7516 13.0223 45.7516C13.0223 45.6303 13.0223 45.509 13.0223 45.3877C13.0223 44.1753 13.1638 43.0835 13.5921 42.4763C13.9471 41.8712 14.3742 41.7484 14.8012 41.7484C15.1575 41.7484 15.371 41.8712 15.5845 41.9896C15.5369 42.3944 15.4893 42.7993 15.4417 43.2041C15.2681 43.0373 15.0712 42.954 14.8719 42.963C14.0899 42.963 13.9471 44.0525 13.9471 45.3877C13.9471 45.5492 13.9471 45.7107 13.9471 45.8722C14.3502 45.8722 14.7532 45.8722 15.1562 45.8722C15.1562 46.2763 15.1562 46.6804 15.1562 47.0845C14.7532 47.0845 14.3502 47.0845 13.9471 47.0845C13.9471 49.5107 13.9471 51.9368 13.9471 54.363C13.6389 54.363 13.3306 54.363 13.0223 54.363C13.0223 54.322 13.0223 54.2811 13.0223 54.2402ZM17.0804 43.932C17.0804 44.5787 17.0804 45.2254 17.0804 45.8722C17.5074 45.8722 17.9345 45.8722 18.3615 45.8722C18.3615 46.2763 18.3615 46.6804 18.3615 47.0845C17.9345 47.0845 17.5074 47.0845 17.0804 47.0845C17.0804 48.5804 17.0804 50.0763 17.0804 51.5722C17.0804 52.6639 17.2219 53.1506 17.721 53.1506C17.9345 53.1506 18.076 53.1506 18.2187 53.0278C18.2423 53.432 18.2659 53.8361 18.2895 54.2402C18.148 54.3608 17.8625 54.4813 17.5074 54.4813C17.0804 54.4813 16.7241 54.2402 16.5106 53.8763C16.2984 53.3918 16.1556 52.6639 16.1556 51.6927C16.1556 50.1567 16.1556 48.6206 16.1556 47.0845C15.8945 47.0845 15.6334 47.0845 15.3723 47.0845C15.3723 46.6804 15.3723 46.2763 15.3723 45.8722C15.6334 45.8722 15.8945 45.8722 16.1556 45.8722C16.1556 45.346 16.1556 44.8198 16.1556 44.2937C16.4639 44.1731 16.7721 44.0525 17.0804 43.932ZM19.8523 45.8722C20.0658 47.2869 20.2793 48.7017 20.4928 50.1165C20.6343 51.0877 20.7771 51.9361 20.8491 52.7845C20.9906 51.9361 21.1321 51.0877 21.2761 50.1165C21.5368 48.7017 21.7975 47.2869 22.0582 45.8722C22.3188 45.8722 22.5795 45.8722 22.8402 45.8722C23.1017 47.2869 23.3633 48.7017 23.6248 50.1165C23.837 51.0877 23.9798 52.0567 24.0506 52.9073C24.1213 52.0567 24.2641 51.2082 24.4068 50.2392C24.6439 48.8237 24.881 47.4082 25.1181 45.9927C25.4028 45.9927 25.6875 45.9927 25.9722 45.9927C25.474 48.7419 24.9758 51.491 24.4776 54.2402C24.2165 54.2402 23.9554 54.2402 23.6943 54.2402C23.4336 52.9065 23.1729 51.5729 22.9122 50.2392C22.7707 49.268 22.628 48.4196 22.4852 47.4484C22.3437 48.4196 22.2009 49.268 22.0582 50.2392C21.7975 51.5729 21.5368 52.9065 21.2761 54.2402C21.015 54.2402 20.7539 54.2402 20.4928 54.2402C19.971 51.4508 19.4492 48.6615 18.9275 45.8722C19.2362 45.8722 19.5449 45.8722 19.8523 45.8722ZM30.3853 52.3C30.3853 53.0278 30.3853 53.7557 30.456 54.3608C30.1949 54.3608 29.9338 54.3608 29.6727 54.3608C29.6491 53.9976 29.6256 53.6344 29.602 53.2712C29.24 54.0463 28.6886 54.4936 28.1074 54.4835C27.1118 54.4835 26.614 53.2712 26.614 52.0567C26.614 49.9959 27.6816 48.9041 29.602 48.9041C29.602 48.8639 29.602 48.8237 29.602 48.7835C29.602 48.0557 29.4605 46.8433 28.4637 46.8433C27.9659 46.8433 27.5376 47.0845 27.1826 47.4484C27.1114 47.1254 27.0402 46.8024 26.969 46.4794C27.3961 45.9927 27.9659 45.7516 28.6051 45.7516C30.0997 45.7516 30.456 47.4484 30.456 49.1475C30.456 50.1983 30.456 51.2492 30.456 52.3C30.4325 52.3 30.4089 52.3 30.3853 52.3ZM29.5312 49.9959C28.5344 49.9959 27.4668 50.237 27.4668 51.9361C27.4668 52.9073 27.8231 53.3918 28.3209 53.3918C28.8662 53.4035 29.3541 52.816 29.5299 51.9361C29.5299 51.8155 29.602 51.5722 29.602 51.4516C29.602 50.9663 29.602 50.4811 29.602 49.9959C29.5784 49.9959 29.5548 49.9959 29.5312 49.9959ZM31.8079 48.5402C31.8079 47.5712 31.8079 46.7206 31.7371 45.8722C31.9982 45.8722 32.2593 45.8722 32.5205 45.8722C32.544 46.4385 32.5676 47.0048 32.5912 47.5712C32.8047 46.4794 33.3732 45.7516 33.9418 45.7516C34.0134 45.7516 34.085 45.7516 34.1566 45.7516C34.1566 46.2368 34.1566 46.722 34.1566 47.2073C34.0618 47.2073 33.967 47.2073 33.8723 47.2073C33.2317 47.2073 32.8047 48.0557 32.6632 49.1475C32.6632 50.8852 32.6632 52.623 32.6632 54.3608C32.3545 54.3608 32.0458 54.3608 31.7371 54.3608C31.7371 52.4206 31.7371 50.4804 31.7371 48.5402C31.7607 48.5402 31.7843 48.5402 31.8079 48.5402ZM35.5058 50.3598C35.5058 52.4206 36.2891 53.2712 37.2139 53.2712C37.8545 53.2712 38.2815 53.0278 38.5658 52.7845C38.6129 53.1484 38.6601 53.5123 38.7073 53.8763C38.4243 54.1174 37.8545 54.3608 37.0712 54.3608C35.5778 54.3608 34.653 52.6639 34.653 50.1165C34.653 47.5712 35.5058 45.6288 36.9297 45.6288C38.5658 45.6288 38.9928 48.0557 38.9928 49.5092C38.9928 49.7525 38.9928 49.9959 38.9928 50.2392C37.8309 50.2392 36.669 50.2392 35.5071 50.2392C35.5071 50.2794 35.5071 50.3196 35.5058 50.3598ZM38.1388 49.268C38.1388 48.299 37.9252 46.8433 36.9297 46.8433C36.0036 46.8433 35.6486 48.2968 35.5778 49.268C36.4315 49.268 37.2851 49.268 38.1388 49.268ZM46.6074 42.7196C47.1772 42.5968 47.8164 42.4785 48.457 42.4785C49.7381 42.4785 50.6629 42.9608 51.2327 43.932C51.8732 44.9032 52.2282 46.2361 52.2282 48.1763C52.2282 50.1165 51.8732 51.6927 51.2327 52.6639C50.5921 53.7557 49.5246 54.3608 48.1727 54.3608C47.5322 54.3608 47.0344 54.3608 46.5366 54.2402C46.5366 50.4 46.5366 46.5598 46.5366 42.7196C46.5602 42.7196 46.5838 42.7196 46.6074 42.7196ZM47.4614 53.1484C47.6749 53.1484 48.0312 53.2712 48.3875 53.2712C50.3079 53.2712 51.3034 51.4516 51.3034 48.299C51.3034 45.5082 50.3786 43.8114 48.529 43.8114C48.102 43.8114 47.7457 43.932 47.4614 43.932C47.4614 47.0041 47.4614 50.0763 47.4614 53.1484ZM53.8669 50.3598C53.8669 52.4206 54.6489 53.2712 55.575 53.2712C56.2143 53.2712 56.6426 53.0278 56.9256 52.7845C56.9732 53.1484 57.0208 53.5123 57.0684 53.8763C56.7841 54.1174 56.2143 54.3608 55.4323 54.3608C53.9377 54.3608 53.0128 52.6639 53.0128 50.1165C53.0128 47.5712 53.8669 45.6288 55.2895 45.6288C56.9269 45.6288 57.3539 48.0557 57.3539 49.5092C57.3539 49.7525 57.3539 49.9959 57.3539 50.2392C56.1916 50.2392 55.0292 50.2392 53.8669 50.2392C53.8669 50.2794 53.8669 50.3196 53.8669 50.3598ZM56.4998 49.268C56.4998 48.299 56.2863 46.8433 55.2908 46.8433C54.3647 46.8433 54.0084 48.2968 53.9377 49.268C54.7917 49.268 55.6458 49.268 56.4998 49.268ZM58.7752 45.8722C59.1071 47.4484 59.4389 49.0247 59.7708 50.601C59.9131 51.3288 60.0554 52.0567 60.1978 52.7845C60.3393 52.0567 60.482 51.4516 60.6248 50.6032C60.9335 49.0262 61.2422 47.4492 61.5509 45.8722C61.8588 45.8722 62.1666 45.8722 62.4744 45.8722C61.8343 48.6615 61.1942 51.4508 60.5541 54.2402C60.2694 54.2402 59.9847 54.2402 59.7 54.2402C59.0835 51.4508 58.4669 48.6615 57.8504 45.8722C58.1587 45.8722 58.4669 45.8722 58.7752 45.8722ZM63.7555 50.3598C63.7555 52.4206 64.5376 53.2712 65.4624 53.2712C66.1029 53.2712 66.53 53.0278 66.8142 52.7845C66.8614 53.1484 66.9085 53.5123 66.9557 53.8763C66.6727 54.1174 66.1029 54.3608 65.3196 54.3608C63.8263 54.3608 62.9015 52.6639 62.9015 50.1165C62.9015 47.5712 63.7542 45.6288 65.1781 45.6288C66.8142 45.6288 67.2412 48.0557 67.2412 49.5092C67.2412 49.7525 67.2412 49.9959 67.2412 50.2392C66.0793 50.2392 64.9174 50.2392 63.7555 50.2392C63.7555 50.2794 63.7555 50.3196 63.7555 50.3598ZM66.3872 49.268C66.3872 48.299 66.1737 46.8433 65.1781 46.8433C64.252 46.8433 63.897 48.2968 63.8263 49.268C64.6799 49.268 65.5335 49.268 66.3872 49.268ZM68.3114 41.9918C68.6201 41.9918 68.9288 41.9918 69.2375 41.9918C69.2375 46.0746 69.2375 50.1574 69.2375 54.2402C68.9288 54.2402 68.6201 54.2402 68.3114 54.2402C68.3114 50.1574 68.3114 46.0746 68.3114 41.9918ZM75.2108 49.9959C75.2108 53.1484 73.9297 54.4835 72.7927 54.4835C71.4395 54.4835 70.444 52.7845 70.444 50.1165C70.444 47.3278 71.5116 45.6288 72.8621 45.6288C74.2152 45.7516 75.2108 47.4484 75.2108 49.9959ZM71.2981 50.1165C71.2981 51.9361 71.9373 53.3918 72.7914 53.3918C73.6454 53.3918 74.286 52.0567 74.286 50.1165C74.286 48.6608 73.859 46.9639 72.7914 46.9639C71.7238 46.8433 71.2981 48.5424 71.2981 50.1165ZM76.2784 48.6608C76.2784 47.5712 76.2784 46.7206 76.2063 45.8722C76.4675 45.8722 76.7286 45.8722 76.9897 45.8722C77.0132 46.3574 77.0368 46.8426 77.0604 47.3278C77.4167 46.3567 77.9865 45.7494 78.8393 45.7494C80.0483 45.7494 80.9024 47.4484 80.9024 49.9959C80.9024 53.0278 79.8348 54.4835 78.6258 54.4835C77.9852 54.4835 77.4167 53.9968 77.1312 53.1484C77.1312 54.6845 77.1312 56.2206 77.1312 57.7567C76.8469 57.7567 76.5626 57.7567 76.2784 57.7567C76.2784 54.7247 76.2784 51.6927 76.2784 48.6608ZM77.2032 50.8443C77.2032 51.0855 77.2032 51.3288 77.2739 51.4516C77.4154 52.5433 77.9852 53.2712 78.6258 53.2712C79.5519 53.2712 80.1204 51.9361 80.1204 49.9959C80.1204 48.299 79.6226 46.8433 78.6258 46.8433C77.9852 46.8433 77.4167 47.5712 77.2739 48.663C77.2739 48.9041 77.2032 49.0247 77.2032 49.268C77.2032 49.7942 77.2032 50.3203 77.2032 50.8443ZM82.1102 48.1785C82.1102 47.3278 82.1102 46.6 82.0395 45.8722C82.3006 45.8722 82.5617 45.8722 82.8228 45.8722C82.8464 46.3172 82.8699 46.7622 82.8935 47.2073C83.1791 46.3567 83.6048 45.6288 84.4589 45.6288C85.0994 45.6288 85.5972 46.3567 85.8107 47.3278C85.9522 46.8433 86.167 46.4794 86.3805 46.2361C86.6874 45.8387 87.0627 45.6253 87.4481 45.6288C88.0886 45.6288 89.0842 46.3567 89.0842 49.268C89.0842 50.9254 89.0842 52.5828 89.0842 54.2402C88.7995 54.2402 88.5148 54.2402 88.2301 54.2402C88.2301 52.6639 88.2301 51.0877 88.2301 49.5114C88.2301 47.9329 87.8751 46.9639 87.1625 46.9639C86.678 46.9829 86.2517 47.5151 86.095 48.2968C86.0242 48.5402 86.0242 48.7835 86.0242 49.0247C86.0242 50.7639 86.0242 52.5032 86.0242 54.2424C85.7395 54.2424 85.4548 54.2424 85.1702 54.2424C85.1702 52.5843 85.1702 50.9262 85.1702 49.268C85.1702 47.9351 84.8152 46.9639 84.1746 46.9639C83.6048 46.9639 83.1778 47.6918 83.0363 48.5424C82.9643 48.7835 82.9643 49.0247 82.9643 49.268C82.9643 50.9656 82.9643 52.6632 82.9643 54.3608C82.68 54.3608 82.3957 54.3608 82.1115 54.3608C82.1115 52.3 82.1115 50.2392 82.1102 48.1785ZM91.0804 50.3598C91.0804 52.4206 91.8625 53.2712 92.7886 53.2712C93.4291 53.2712 93.8561 53.0278 94.1391 52.7845C94.1867 53.1484 94.2343 53.5123 94.2819 53.8763C93.9976 54.1174 93.4291 54.3608 92.6458 54.3608C91.1512 54.3608 90.2277 52.6639 90.2277 50.1165C90.2277 47.5712 91.0804 45.6288 92.5043 45.6288C94.1404 45.6288 94.5674 48.0557 94.5674 49.5092C94.5674 49.7525 94.5674 49.9959 94.5674 50.2392C93.4051 50.2392 92.2428 50.2392 91.0804 50.2392C91.0804 50.2794 91.0804 50.3196 91.0804 50.3598ZM93.6413 49.268C93.6413 48.299 93.4278 46.8433 92.4323 46.8433C91.5062 46.8433 91.1512 48.2968 91.0804 49.268C91.9341 49.268 92.7877 49.268 93.6413 49.268ZM95.6312 48.1785C95.6312 47.3278 95.6312 46.6 95.5604 45.8722C95.8211 45.8722 96.0818 45.8722 96.3425 45.8722C96.366 46.3172 96.3896 46.7622 96.4132 47.2073C96.6267 46.4794 97.1965 45.6288 98.0506 45.6288C98.7619 45.6288 99.7574 46.3567 99.7574 49.1475C99.7574 50.8048 99.7574 52.4622 99.7574 54.1196C99.4492 54.1196 99.1409 54.1196 98.8326 54.1196C98.8326 52.5024 98.8326 50.8852 98.8326 49.268C98.8326 47.9351 98.5484 46.8433 97.6943 46.8433C97.1258 46.8433 96.6267 47.5712 96.4852 48.4196C96.4132 48.6608 96.4132 48.9041 96.4132 49.1475C96.4132 50.845 96.4132 52.5426 96.4132 54.2402C96.1525 54.2402 95.8918 54.2402 95.6312 54.2402C95.6312 52.2196 95.6312 50.199 95.6312 48.1785ZM102.3209 43.932C102.3209 44.5787 102.3209 45.2254 102.3209 45.8722C102.7479 45.8722 103.175 45.8722 103.602 45.8722C103.602 46.2763 103.602 46.6804 103.602 47.0845C103.175 47.0845 102.7479 47.0845 102.3209 47.0845C102.3209 48.5804 102.3209 50.0763 102.3209 51.5722C102.3209 52.6639 102.4637 53.1506 102.9614 53.1506C103.175 53.1506 103.3177 53.1506 103.4605 53.0278C103.4841 53.432 103.5077 53.8361 103.5313 54.2402C103.3898 54.3608 103.1042 54.4813 102.7479 54.4813C102.3209 54.4813 101.9659 54.2402 101.7524 53.8763C101.5389 53.3918 101.3961 52.6639 101.3961 51.6927C101.3961 50.1567 101.3961 48.6206 101.3961 47.0845C101.1354 47.0845 100.8747 47.0845 100.6141 47.0845C100.6141 46.6804 100.6141 46.2763 100.6141 45.8722C100.8747 45.8722 101.1354 45.8722 101.3961 45.8722C101.3961 45.346 101.3961 44.8198 101.3961 44.2937C101.7048 44.1731 102.0135 44.0525 102.3209 43.932ZM113.7067 53.8785C113.4212 54.1196 112.7099 54.4835 111.9278 54.4835C110.0062 54.4835 108.5836 52.4228 108.5836 48.5424C108.5836 44.9032 110.0062 42.3557 112.1414 42.3557C112.9941 42.3557 113.5639 42.7196 113.7774 42.8402C113.7063 43.2443 113.6351 43.6484 113.5639 44.0525C113.1369 43.7385 112.6772 43.5737 112.2121 43.568C110.576 43.568 109.5084 45.2649 109.5084 48.4196C109.5084 51.3288 110.504 53.1484 112.1414 53.1484C112.6293 53.1417 113.112 52.9773 113.5639 52.6639C113.6111 53.068 113.6583 53.4722 113.7067 53.8785ZM119.1141 49.9959C119.1141 53.1484 117.833 54.4835 116.6959 54.4835C115.3428 54.4835 114.3473 52.7845 114.3473 50.1165C114.3473 47.3278 115.4148 45.6288 116.7654 45.6288C118.1893 45.7516 119.1141 47.4484 119.1141 49.9959ZM115.2721 50.1165C115.2721 51.9361 115.9126 53.3918 116.7654 53.3918C117.6195 53.3918 118.26 52.0567 118.26 50.1165C118.26 48.6608 117.833 46.9639 116.7654 46.9639C115.6978 46.8433 115.2721 48.5424 115.2721 50.1165ZM120.2511 48.1785C120.2511 47.3278 120.2511 46.6 120.1804 45.8722C120.441 45.8722 120.7017 45.8722 120.9624 45.8722C120.986 46.3172 121.0096 46.7622 121.0331 47.2073C121.3187 46.3567 121.7457 45.6288 122.5998 45.6288C123.239 45.6288 123.7381 46.3567 123.9503 47.3278C124.0931 46.8433 124.3066 46.4794 124.5201 46.2361C124.827 45.8387 125.2023 45.6253 125.5877 45.6288C126.2283 45.6288 127.2238 46.3567 127.2238 49.268C127.2238 50.9254 127.2238 52.5828 127.2238 54.2402C126.9396 54.2402 126.6553 54.2402 126.371 54.2402C126.371 52.6639 126.371 51.0877 126.371 49.5114C126.371 47.9329 126.0147 46.9639 125.3035 46.9639C124.819 46.9836 124.393 47.5155 124.2359 48.2968C124.1651 48.5402 124.1651 48.7835 124.1651 49.0247C124.1651 50.7639 124.1651 52.5032 124.1651 54.2424C123.8804 54.2424 123.5958 54.2424 123.3111 54.2424C123.3111 52.5843 123.3111 50.9262 123.3111 49.268C123.3111 47.9351 122.9548 46.9639 122.3142 46.9639C121.7457 46.9639 121.3187 47.6918 121.1759 48.5424C121.1052 48.7835 121.1052 49.0247 121.1052 49.268C121.1052 50.9656 121.1052 52.6632 121.1052 54.3608C120.8205 54.3608 120.5358 54.3608 120.2511 54.3608C120.2511 52.3 120.2511 50.2392 120.2511 48.1785ZM128.7197 48.6608C128.7197 47.5712 128.7197 46.7206 128.649 45.8722C128.9101 45.8722 129.1712 45.8722 129.4323 45.8722C129.4559 46.3574 129.4795 46.8426 129.503 47.3278C129.8593 46.3567 130.4278 45.7494 131.2819 45.7494C132.491 45.7494 133.345 47.4484 133.345 49.9959C133.345 53.0278 132.2775 54.4835 131.0684 54.4835C130.4278 54.4835 129.8593 53.9968 129.5738 53.1484C129.5738 54.6845 129.5738 56.2206 129.5738 57.7567C129.2895 57.7567 129.0053 57.7567 128.721 57.7567C128.721 54.7247 128.721 51.6927 128.7197 48.6608ZM129.6458 50.8443C129.6458 51.0855 129.6458 51.3288 129.7165 51.4516C129.8593 52.5433 130.4278 53.2712 131.0684 53.2712C131.9932 53.2712 132.563 51.9361 132.563 49.9959C132.563 48.299 132.0652 46.8433 131.0684 46.8433C130.4278 46.8433 129.8593 47.5712 129.7165 48.663C129.7165 48.9041 129.6458 49.0247 129.6458 49.268C129.6458 49.7942 129.6458 50.3203 129.6458 50.8443ZM137.9678 52.3C137.9678 53.0278 137.9678 53.7557 138.0385 54.3608C137.7774 54.3608 137.5163 54.3608 137.2552 54.3608C137.2316 53.9976 137.208 53.6344 137.1845 53.2712C136.8226 54.0466 136.2711 54.494 135.6899 54.4835C134.6943 54.4835 134.1965 53.2712 134.1965 52.0567C134.1965 49.9959 135.2628 48.9041 137.1845 48.9041C137.1845 48.8639 137.1845 48.8237 137.1845 48.7835C137.1845 48.0557 137.0417 46.8433 136.0461 46.8433C135.5484 46.8433 135.1213 47.0845 134.765 47.4484C134.6939 47.1254 134.6227 46.8024 134.5515 46.4794C134.9786 45.9927 135.5484 45.7516 136.1889 45.7516C137.6822 45.7516 138.0385 47.4484 138.0385 49.1475C138.0385 50.1983 138.0385 51.2492 138.0385 52.3C138.0149 52.3 137.9914 52.3 137.9678 52.3ZM137.1137 49.9959C136.1169 49.9959 135.0506 50.237 135.0506 51.9361C135.0506 52.9073 135.4056 53.3918 135.9034 53.3918C136.5439 53.3918 136.9709 52.6639 137.1137 51.9361C137.1137 51.8155 137.1845 51.5722 137.1845 51.4516C137.1845 50.9663 137.1845 50.4811 137.1845 49.9959C137.1609 49.9959 137.1373 49.9959 137.1137 49.9959ZM139.3929 48.1785C139.3929 47.3278 139.3929 46.6 139.3209 45.8722C139.582 45.8722 139.8431 45.8722 140.1042 45.8722C140.1278 46.3172 140.1514 46.7622 140.175 47.2073C140.3885 46.4794 140.9583 45.6288 141.8111 45.6288C142.5237 45.6288 143.5192 46.3567 143.5192 49.1475C143.5192 50.8048 143.5192 52.4622 143.5192 54.1196C143.2109 54.1196 142.9027 54.1196 142.5944 54.1196C142.5944 52.5024 142.5944 50.8852 142.5944 49.268C142.5944 47.9351 142.3101 46.8433 141.4561 46.8433C140.8863 46.8433 140.3885 47.5712 140.2457 48.4196C140.175 48.6608 140.175 48.9041 140.175 49.1475C140.175 50.845 140.175 52.5426 140.175 54.2402C139.8667 54.2402 139.5584 54.2402 139.2502 54.2402C139.2502 52.2196 139.2502 50.199 139.2502 48.1785C139.2978 48.1785 139.3453 48.1785 139.3929 48.1785ZM145.226 45.8722C145.5819 47.5295 145.9378 49.1869 146.2936 50.8443C146.4351 51.4516 146.5071 52.0567 146.6486 52.5433C146.7194 52.0567 146.8621 51.4516 146.9329 50.8443C147.2652 49.1869 147.5974 47.5295 147.9297 45.8722C148.238 45.8722 148.5463 45.8722 148.8545 45.8722C148.4039 47.8525 147.9533 49.8329 147.5027 51.8133C146.8621 54.7247 146.4351 56.1804 145.7946 57.031C145.4794 57.4688 145.1172 57.7979 144.7283 58C144.6571 57.5959 144.5859 57.1918 144.5148 56.7877C144.7283 56.6671 145.0125 56.4237 145.2968 56.0598C145.5103 55.6959 145.8666 55.0886 146.0801 54.3608C146.1509 54.2402 146.1509 54.1196 146.1509 53.9968C146.1509 53.8763 146.1509 53.7557 146.0801 53.6351C145.4872 51.0482 144.8942 48.4613 144.3012 45.8743C144.6095 45.8743 144.9178 45.8743 145.226 45.8722Z" style=""></path><path fill="#A62917" stroke="none" fill-opacity="1" stroke-width="1" stroke-opacity="1" color="rgb(51, 51, 51)" id="tSvg1273bb7430d" title="Path 2" d="M148.9291 35.0794C99.8093 35.0794 50.6895 35.0794 1.5696 35.0794C1.5696 35.6048 1.5696 36.1303 1.5696 36.6557C50.6895 36.6557 99.8093 36.6557 148.9291 36.6557C148.9291 36.1295 148.9291 35.6034 148.9291 35.0794Z" style=""></path><path fill="#000" stroke="none" fill-opacity="1" stroke-width="1" stroke-opacity="1" color="rgb(51, 51, 51)" id="tSvga1953044ff" title="Path 3" d="M5.5531 4.2753C4.0354 4.2753 2.5176 4.2753 0.9998 4.2753C0.9998 3.3443 0.9998 2.4133 0.9998 1.4823C4.6759 1.4823 8.352 1.4823 12.0281 1.4823C12.0281 2.4126 12.0281 3.3428 12.0281 4.2731C10.5103 4.2731 8.9925 4.2731 7.4748 4.2731C7.4748 11.792 7.4748 19.3109 7.4748 26.8298C6.8342 26.8298 6.1937 26.8298 5.5531 26.8298C5.5531 19.3109 5.5531 11.792 5.5531 4.2753ZM11.8145 24.8918C11.8145 23.5567 12.3831 22.4649 13.1651 22.4649C13.9497 22.4649 14.4462 23.4361 14.4462 24.8918C14.4462 26.2247 13.9484 27.3165 13.0956 27.3165C12.3123 27.1959 11.8145 26.2247 11.8145 24.8918ZM19.7146 4.2753C18.2205 4.2753 16.7263 4.2753 15.2321 4.2753C15.2321 3.3443 15.2321 2.4133 15.2321 1.4823C18.9086 1.4823 22.5851 1.4823 26.2616 1.4823C26.2616 2.4126 26.2616 3.3428 26.2616 4.2731C24.7438 4.2731 23.2261 4.2731 21.7083 4.2731C21.7083 11.792 21.7083 19.3109 21.7083 26.8298C21.0678 26.8298 20.4272 26.8298 19.7867 26.8298C19.7867 19.3109 19.7867 11.792 19.7867 4.2731C19.7627 4.2731 19.7386 4.2731 19.7146 4.2753ZM26.0468 24.8918C26.0468 23.5567 26.6166 22.4649 27.3986 22.4649C28.182 22.4649 28.6797 23.4361 28.6797 24.8918C28.6797 26.2247 28.182 27.3165 27.3279 27.3165C26.5446 27.1959 26.0468 26.2247 26.0468 24.8918ZM41.4868 25.9835C40.7755 26.5886 39.3517 27.1959 37.5728 27.1959C33.3745 27.1959 30.2438 22.7082 30.2438 14.3402C30.2438 6.3361 33.3745 1 37.9998 1C39.8495 1 41.0598 1.7278 41.5576 2.0918C41.3917 2.9811 41.2257 3.8705 41.0598 4.7598C40.3485 4.1525 39.2809 3.668 38.0706 3.668C34.5849 3.668 32.2362 7.4278 32.2362 14.0968C32.2362 20.4041 34.3006 24.2845 37.9291 24.2845C39.1382 24.2845 40.2765 23.9206 41.0598 23.1927C41.2022 24.123 41.3445 25.0533 41.4868 25.9835ZM56.2143 13.8557C56.2143 22.5877 53.0836 27.1959 49.3123 27.1959C45.3288 27.1959 42.6239 21.9804 42.6239 14.3402C42.6239 6.3361 45.5424 1 49.5258 1C53.5827 1 56.2143 6.3361 56.2143 13.8557ZM44.6163 14.2196C44.6163 19.6785 46.3244 24.5278 49.3844 24.5278C52.443 24.5278 54.1512 19.7968 54.1512 13.9763C54.1512 8.8835 52.5858 3.668 49.3844 3.668C46.1816 3.668 44.6163 8.7608 44.6163 14.2196ZM58.7058 26.832C58.7058 18.3828 58.7058 9.9337 58.7058 1.4845C59.4175 1.4845 60.1292 1.4845 60.8409 1.4845C62.4058 5.7697 63.9708 10.055 65.5357 14.3402C66.6033 17.2516 67.5294 20.0402 68.1699 22.5877C68.1935 22.5877 68.2171 22.5877 68.2407 22.5877C68.0921 19.1165 68.0209 15.637 68.0271 12.1567C68.0271 8.5993 68.0271 5.0419 68.0271 1.4845C68.6201 1.4845 69.2131 1.4845 69.806 1.4845C69.806 9.9337 69.806 18.3828 69.806 26.832C69.1655 26.832 68.5249 26.832 67.8844 26.832C66.3194 22.5467 64.7545 18.2615 63.1896 13.9763C62.122 11.1877 61.1252 8.2763 60.4139 5.4877C60.3903 5.4877 60.3667 5.4877 60.3431 5.4877C60.4846 8.6402 60.4846 11.6722 60.4846 15.9165C60.4846 19.5148 60.4846 23.1131 60.4846 26.7114C59.8917 26.7114 59.2987 26.7114 58.7058 26.7114C58.7058 26.7516 58.7058 26.7918 58.7058 26.832ZM73.0062 22.8288C73.8602 23.8 75.0693 24.5278 76.4211 24.5278C78.4148 24.5278 79.5519 22.7082 79.5519 20.1608C79.5519 17.8588 78.7698 16.4032 76.7774 15.1886C74.3593 13.7351 72.8634 11.5494 72.8634 7.9123C72.8634 3.9114 74.7851 1 77.7022 1C79.1969 1 80.3352 1.6073 80.9757 2.2123C80.8094 3.1017 80.643 3.991 80.4767 4.8804C79.9776 4.3959 79.0528 3.668 77.701 3.668C75.6378 3.668 74.9265 5.7288 74.9265 7.4278C74.9265 9.8525 75.8513 10.9443 77.9145 12.2794C80.4046 13.9763 81.6857 16.0392 81.6857 19.6763C81.6857 23.5567 79.9776 27.0753 76.4919 27.0753C75.068 27.0753 73.5027 26.3475 72.7206 25.3763C72.8154 24.5271 72.9101 23.678 73.0062 22.8288ZM86.0307 1.4845C86.0307 6.4976 86.0307 11.5107 86.0307 16.5237C86.0307 22.2237 87.5253 24.5257 89.5164 24.5257C91.7223 24.5257 93.1461 22.1032 93.1461 16.5237C93.1461 11.5099 93.1461 6.4961 93.1461 1.4823C93.7863 1.4823 94.4264 1.4823 95.0665 1.4823C95.0665 6.415 95.0665 11.3477 95.0665 16.2804C95.0665 24.0412 92.6484 27.1937 89.4456 27.1937C86.3857 27.1937 84.109 24.2823 84.109 16.401C84.109 11.4281 84.109 6.4552 84.109 1.4823C84.7496 1.4823 85.3901 1.4823 86.0307 1.4845ZM98.34 1.4845C98.9801 1.4845 99.6202 1.4845 100.2603 1.4845C100.2603 9.0041 100.2603 16.5237 100.2603 24.0433C102.3715 24.0433 104.4826 24.0433 106.5938 24.0433C106.5938 24.9729 106.5938 25.9024 106.5938 26.832C103.8189 26.832 101.0441 26.832 98.2692 26.832C98.2692 18.3828 98.2692 9.9337 98.2692 1.4845C98.2928 1.4845 98.3164 1.4845 98.34 1.4845ZM109.7219 4.2753C108.2042 4.2753 106.6864 4.2753 105.1686 4.2753C105.1686 3.3443 105.1686 2.4133 105.1686 1.4823C108.8447 1.4823 112.5208 1.4823 116.1969 1.4823C116.1969 2.4126 116.1969 3.3428 116.1969 4.2731C114.6791 4.2731 113.1613 4.2731 111.6436 4.2731C111.6436 11.792 111.6436 19.3109 111.6436 26.8298C111.003 26.8298 110.3625 26.8298 109.7219 26.8298C109.7219 19.3109 109.7219 11.792 109.7219 4.2753ZM119.7559 1.4845C119.7559 9.9337 119.7559 18.3828 119.7559 26.832C119.1158 26.832 118.4757 26.832 117.8355 26.832C117.8355 18.3828 117.8355 9.9337 117.8355 1.4845C118.4757 1.4845 119.1158 1.4845 119.7559 1.4845ZM123.0976 26.832C123.0976 18.3828 123.0976 9.9337 123.0976 1.4845C123.8093 1.4845 124.521 1.4845 125.2327 1.4845C126.8216 5.7697 128.4106 10.055 129.9995 14.3402C131.0671 17.2516 131.9919 20.0402 132.6325 22.5877C132.656 22.5877 132.6796 22.5877 132.7032 22.5877C132.4897 19.1896 132.4897 16.1598 132.4897 12.1567C132.4897 8.5993 132.4897 5.0419 132.4897 1.4845C133.0826 1.4845 133.6756 1.4845 134.2686 1.4845C134.2686 9.9337 134.2686 18.3828 134.2686 26.832C133.6284 26.832 132.9883 26.832 132.3482 26.832C130.7828 22.5467 129.2175 18.2615 127.6521 13.9763C126.5846 11.1877 125.5877 8.2763 124.8764 5.4877C124.8528 5.4877 124.8293 5.4877 124.8057 5.4877C124.9472 8.6402 124.9472 11.6722 124.9472 15.9165C124.9472 19.5148 124.9472 23.1131 124.9472 26.7114C124.3306 26.7114 123.7141 26.7114 123.0976 26.7114C123.0976 26.7516 123.0976 26.7918 123.0976 26.832ZM148.9999 25.7402C148.1458 26.3475 146.4377 27.0753 144.3746 27.0753C142.0979 27.0753 140.247 26.1041 138.8244 23.6772C137.5433 21.6165 136.7613 18.2206 136.7613 14.2196C136.7613 6.7 139.8213 1.1206 144.8016 1.1206C146.5097 1.1206 147.8616 1.7278 148.5008 2.3351C148.3349 3.2245 148.169 4.1138 148.003 5.0032C147.221 4.3959 146.2242 3.9114 144.7308 3.9114C141.1011 3.9114 138.7537 7.7918 138.7537 14.0968C138.7537 20.5247 141.0303 24.2845 144.5173 24.2845C145.7971 24.2845 146.6512 24.0433 147.0782 23.5567C147.0782 21.0508 147.0782 18.545 147.0782 16.0392C146.0823 16.0392 145.0863 16.0392 144.0903 16.0392C144.0903 15.1506 144.0903 14.262 144.0903 13.3734C145.7268 13.3734 147.3633 13.3734 148.9999 13.3734C148.9999 17.4964 148.9999 21.6194 148.9999 25.7402Z" style=""></path><defs></defs></svg> 